<?xml version="1.0" encoding="utf-8"?>
<!-- Generator: Adobe Illustrator 26.0.3, SVG Export Plug-In . SVG Version: 6.00 Build 0)  -->
<svg version="1.1" id="Camada_1" xmlns="http://www.w3.org/2000/svg" xmlns:xlink="http://www.w3.org/1999/xlink" x="0px" y="0px"
	 viewBox="0 0 1920 1080" style="enable-background:new 0 0 1920 1080;" xml:space="preserve">
<style type="text/css">
	.st0{fill-rule:evenodd;clip-rule:evenodd;fill:#1D1D1B;}
</style>
<path class="st0" d="M1034.77,532.25c0,0-15.17-9.38-24.55-13.01c0,0-29.03-13.45-34.79-19.86c0,0-11.3-10.66-4.69-23.05
	c0,0,2.77-8.1,14.73-8.1c0,0,15.57,0.85,15.57,13.65v18.05h55.79l-0.1-26.59c0,0,4.29-43.53-65.72-45.44c0,0-55.05-3.62-70.84,26.03
	c0,0-6.19,6.61-6.19,29.65v16.65c0,0-0.63,19.21,9.18,31.58c0,0,5.55,8.11,19.21,17.07c0,0,27.74,14.94,44.38,23.48
	c0,0,16.81,9.59,14.59,24.85c0,0-1.36,15.67-17.59,15.03c0,0-14.84-0.67-14.84-16.04v-18.04h-59.44v26.21
	c0,0-1.67,50.12,74.73,50.12c0,0,72.98,1.49,76.39-51.44v-21.32C1060.56,581.74,1063.13,549.31,1034.77,532.25L1034.77,532.25z"/>
<polygon class="st0" points="749.16,434.14 730.48,551.2 726.11,551.2 708.26,435.19 615.07,435.19 610.41,647.17 665.58,647.17 
	666.24,487.45 670.58,487.45 699.83,647.13 757.87,647.13 786.76,487.51 790.6,487.51 791.94,647.17 847.4,647.17 841.43,434.14 
	749.16,434.14 "/>
<polygon class="st0" points="420.72,435.02 384.01,646.93 443.4,646.93 465.14,482.62 470.03,482.62 491.77,646.93 551.15,646.93 
	514.46,435.02 420.72,435.02 "/>
<path class="st0" d="M1667.06,529.33v31.27h15.23v33.56c0,16.4-14.02,16.7-14.02,16.7c-17.05,0-16.41-15.59-16.41-15.59V479.19
	c0-11.96,15.13-12.6,15.13-12.6c14.52,0,14.63,14.26,14.63,14.26v17.65h55.92c1.82-34.44-5.04-42.79-5.04-42.79
	c-13.88-31.15-66.36-29.45-66.36-29.45c-80.65,0-71.7,61.88-71.7,61.88v112.23c1.73,58.03,81.19,52.14,82.54,52.07
	c35.36-3.91,46.03-15.14,46.03-15.14c9.83-7.3,12.36-17.39,12.36-17.39c2.8-5.89,3.51-24.65,3.51-24.65v-65.94H1667.06
	L1667.06,529.33z"/>
<polygon class="st0" points="1481.69,563.82 1479.26,563.82 1422.49,434.19 1354.61,434.19 1354.61,647.2 1409.86,647.2 
	1406.55,517.59 1409.02,517.59 1467.81,647.2 1533.67,647.2 1533.67,434.17 1477.71,434.17 1481.69,563.82 "/>
<path class="st0" d="M1219.7,594.12c0,0,0.81,17.48-15.4,17.48c0,0-17.06,0.91-17.06-17.05l-0.17-160.24h-60.62v158.96
	c0,0-6.22,60.17,78.69,60.17c0,0,73.79,0.88,73.79-57.41V434.32h-59.23V594.12L1219.7,594.12z"/>
<path class="st0" d="M305.16,532.24c0,0-15.15-9.38-24.54-13c0,0-29.02-13.44-34.77-19.86c0,0-11.31-10.68-4.69-23.03
	c0,0,2.76-8.11,14.71-8.11c0,0,15.58,0.85,15.58,13.64v18.05h55.81l-0.11-26.59c0,0,4.26-43.53-65.72-45.44c0,0-5.27-0.34-13,0.05
	c0,0-42.39,2.28-57.55,25.53c-0.09,0.17-0.21,0.3-0.3,0.45c0,0-6.19,6.6-6.19,29.65v16.65c0,0-0.64,19.2,9.18,31.58
	c0,0,5.54,8.11,19.21,17.07c0,0,27.72,14.93,44.37,23.47c0,0,16.82,9.59,14.6,24.86c0,0-1.37,15.67-17.59,15.03
	c0,0-14.84-0.67-14.84-16.04v-18.05h-59.46v26.22c0,0-1.66,50.12,74.72,50.12c0,0,72.97,1.49,76.4-51.44v-21.32
	C330.98,581.75,333.54,549.31,305.16,532.24L305.16,532.24z"/>
</svg>
